<?xml version="1.0" encoding="UTF-8"?>
<svg width="20px" height="19px" viewBox="0 0 20 19" version="1.1" xmlns="http://www.w3.org/2000/svg" xmlns:xlink="http://www.w3.org/1999/xlink">
    <!-- Generator: Sketch 50 (54983) - http://www.bohemiancoding.com/sketch -->
    <title>Shape</title>
    <desc>Created with Sketch.</desc>
    <defs></defs>
    <g id="Page-1" stroke="none" stroke-width="1" fill="none" fill-rule="evenodd">
        <g id="Artboard" transform="translate(-572.000000, -181.000000)" fill="#FFFFFF" fill-rule="nonzero">
            <g id="地图信息" transform="translate(396.000000, 170.000000)">
                <g id="工具" transform="translate(176.000000, 10.000000)">
                    <path d="M19.1562927,1.95656585 C18.0561171,0.8464 16.2741073,0.8464 15.1751805,1.95656585 L8.13705366,9.06212683 L12.1181659,13.0832 L19.1562927,5.97763902 C20.2564683,4.86622439 20.2564683,3.06673171 19.1562927,1.95656585 Z M10.5259707,9.14954146 L10.0514341,8.67125854 L16.003122,2.66087805 C16.1329951,2.5297561 16.3452878,2.5297561 16.4789073,2.66087805 C16.6087805,2.792 16.6087805,3.00679024 16.4789073,3.13916098 L10.5259707,9.14954146 Z M11.5175024,10.1485659 L11.0417171,9.67028293 L17.4891707,3.1628878 C17.6190439,3.03051707 17.8313366,3.03051707 17.9637073,3.16163902 C18.0935805,3.29400976 18.0935805,3.50755122 17.9612098,3.63992195 L11.5175024,10.1485659 Z M12.5077854,11.148839 L12.032,10.6705561 L17.982439,4.66142439 C18.1123122,4.52905366 18.3246049,4.53030244 18.4557268,4.66142439 C18.5868488,4.79254634 18.5856,5.00733659 18.4557268,5.13970732 L12.5077854,11.148839 Z" id="Shape"></path>
                    <polygon id="Shape" points="6.8545561 16.3100488 6.49365854 15.9454049 9.81041951 12.5949268 8.50669268 11.2774634 5.18868293 14.6279415 4.83402927 14.2695415 4.05354146 14.6803902 1.44483902 18.9462244 2.22158049 19.7317073 6.41123902 17.1217561"></polygon>
                    <path d="M4.44690732,1 C4.06478049,1 3.69763902,1.05369756 3.34423415,1.14485854 C3.3792,1.17607805 3.42040976,1.19980488 3.45287805,1.23477073 L5.0563122,2.85319024 C5.87301463,3.67738537 5.87301463,5.01607805 5.0563122,5.84027317 C4.23960976,6.66446829 2.91465366,6.66446829 2.09795122,5.84027317 L0.494517073,4.22310244 C0.41084878,4.13818537 0.340917073,4.04452683 0.273482927,3.94961951 C0.099902439,4.43164878 0,4.94739512 0,5.48936585 C0,7.96819512 1.9905561,9.97748293 4.44690732,9.97748293 C6.90200976,9.97748293 8.89256585,7.96694634 8.89256585,5.48811707 C8.89256585,3.0092878 6.90076098,1 4.44690732,1 Z" id="Shape"></path>
                    <path d="M18.033639,18.7564098 C18.9976976,17.7811122 18.9976976,16.2001561 18.033639,15.2248585 L14.4821073,11.6421073 L10.9842732,15.171161 L14.5383024,18.7564098 C15.5036098,19.7304585 17.0683317,19.7304585 18.033639,18.7564098 Z M15.6634537,16.3624976 C16.0630634,15.9591415 16.7099317,15.9591415 17.1095415,16.3624976 C17.5091512,16.7658537 17.5091512,17.4202146 17.1095415,17.8248195 C16.7099317,18.2269268 16.0630634,18.2269268 15.6634537,17.8248195 C15.2638439,17.4189659 15.2638439,16.7658537 15.6634537,16.3624976 Z" id="Shape"></path>
                </g>
            </g>
        </g>
    </g>
</svg>